# xmcd
# Copyright (C) 1995-1998 Ti Kan
#
# Track frame offsets:
#       150
#       40135
#       61427
#       86210
#       115500
#       134892
#       160922
#       184835
#       212680
#
# Disc length: 3636 seconds
#
# Revision: 0
# Processed by: cddbd v1.5.2PL0 Copyright (c) Steve Scherf et al.
# Submitted via: CD-Import v1.0
#
DISCID=810e3209
DTITLE=Bugge Wesseltoft's - New Conception Of Jazz - Sharing
DYEAR=1900
DGENRE=
TTITLE0=("all I Wanted Was To Make You") Feel Good
TTITLE1=Sharing
TTITLE2=Existence
TTITLE3=You Might Say
TTITLE4=("come On Buddy-You Got") Green Light
TTITLE5=Eve Nin
TTITLE6=Hymn
TTITLE7=Flimmer
TTITLE8=Breen'n Glue
EXTD=
EXTT0=
EXTT1=
EXTT2=
EXTT3=
EXTT4=
EXTT5=
EXTT6=
EXTT7=
EXTT8=
PLAYORDER=
